<svg id="visual" viewBox="0 0 960 300" width="960" height="300" xmlns="http://www.w3.org/2000/svg" xmlns:xlink="http://www.w3.org/1999/xlink" version="1.1"><rect x="0" y="0" width="960" height="300" fill="#001220"></rect><path d="M0 85L13.3 107.8C26.7 130.7 53.3 176.3 80 195.2C106.7 214 133.3 206 160 199C186.7 192 213.3 186 240 174.2C266.7 162.3 293.3 144.7 320 148.3C346.7 152 373.3 177 400 195.7C426.7 214.3 453.3 226.7 480 218.2C506.7 209.7 533.3 180.3 560 182.3C586.7 184.3 613.3 217.7 640 230.8C666.7 244 693.3 237 720 209.3C746.7 181.7 773.3 133.3 800 135C826.7 136.7 853.3 188.3 880 189.7C906.7 191 933.3 142 946.7 117.5L960 93L960 0L946.7 0C933.3 0 906.7 0 880 0C853.3 0 826.7 0 800 0C773.3 0 746.7 0 720 0C693.3 0 666.7 0 640 0C613.3 0 586.7 0 560 0C533.3 0 506.7 0 480 0C453.3 0 426.7 0 400 0C373.3 0 346.7 0 320 0C293.3 0 266.7 0 240 0C213.3 0 186.7 0 160 0C133.3 0 106.7 0 80 0C53.3 0 26.7 0 13.3 0L0 0Z" fill="#188b7b" stroke-linecap="round" stroke-linejoin="miter"></path></svg>